<?xml version="1.0" encoding="UTF-8"?>
<!DOCTYPE svg PUBLIC "-//W3C//DTD SVG 1.1//EN" "http://www.w3.org/Graphics/SVG/1.1/DTD/svg11.dtd">
<!-- Creator: CorelDRAW -->
<svg xmlns="http://www.w3.org/2000/svg" xml:space="preserve" width="18in" height="18in" version="1.1" style="shape-rendering:geometricPrecision; text-rendering:geometricPrecision; image-rendering:optimizeQuality; fill-rule:evenodd; clip-rule:evenodd"
viewBox="0 0 18000 18000"
 xmlns:xlink="http://www.w3.org/1999/xlink"
 xmlns:xodm="http://www.corel.com/coreldraw/odm/2003">
 <defs>
  <style type="text/css">
   <![CDATA[
    .str0 {stroke:black;stroke-width:6.94;stroke-miterlimit:2.61313}
    .fil0 {fill:black}
    .fil1 {fill:#39FF14}
   ]]>
  </style>
 </defs>
 <g id="Layer_x0020_1">
  <metadata id="CorelCorpID_0Corel-Layer"/>
  <rect class="fil0 str0" y="-0" width="18000" height="18000"/>
  <g id="_2207880848816">
   <path class="fil1" d="M1936.26 8103.83l1681.22 0.01c114.96,-29.72 74.09,-66.55 155.03,-348.34 562.15,-1957.09 2684.83,-3282.76 4836.03,-2833.22 1212.87,253.46 1998.86,929.44 2524.86,1639.52 519.32,701.06 1044.04,2196.09 676.82,3322.25l-6250.63 8.9c90.19,333.02 425.19,737.13 603.81,881.54 803.66,649.76 1838.4,818.4 2749.31,302.26 173.43,-98.27 297.41,-222.71 432.51,-284.68l1593.02 857.54c-220.07,427.74 -1092.26,1019.09 -1747.12,1259.14 -812.48,297.83 -1731.8,340.67 -2601.75,90.46 -1350.36,-388.39 -2499.69,-1515.47 -2841.78,-2839.94 -100.81,-390.33 67.58,-266.47 -1810.14,-266.48 129.83,1232.69 784.56,2330.85 1529.06,3162.15 1263.76,1411.12 3623.88,2210.29 5798.41,1631.21 1843.72,-490.99 2760.01,-1611.19 3698.63,-2550.28l2329.64 -2329.49c182.84,-182.78 647.79,-599.7 770.54,-804.43l-3092.83 -3103.37c-920.55,-921.83 -1850.39,-2115.02 -3669.31,-2580.59 -3546.28,-907.69 -6971.16,1476.41 -7365.33,4785.83z"/>
   <path class="fil1" d="M5556.29 8096.85l4385.5 7.01c-406.68,-1253.9 -2200.34,-2000.62 -3572.6,-1047.04 -274.57,190.8 -698.71,621.38 -812.91,1040.02z"/>
  </g>
 </g>
</svg>
